<?xml version="1.0" encoding="UTF-8" standalone="no"?>
<!DOCTYPE svg PUBLIC "-//W3C//DTD SVG 1.1//EN" "http://www.w3.org/Graphics/SVG/1.1/DTD/svg11.dtd">
<svg width="100%" height="100%" viewBox="0 0 20 20" version="1.1" xmlns="http://www.w3.org/2000/svg" xmlns:xlink="http://www.w3.org/1999/xlink" xml:space="preserve" xmlns:serif="http://www.serif.com/" style="fill-rule:evenodd;clip-rule:evenodd;stroke-linejoin:round;stroke-miterlimit:1.41421;">
    <g transform="matrix(0.357428,0,0,0.357428,0.0415765,0.00519766)">
        <path d="M11.287,54.548C11.08,54.548 10.873,54.484 10.699,54.357C10.391,54.133 10.237,53.754 10.302,53.379L13.393,35.361L0.302,22.602C0.03,22.336 -0.068,21.939 0.049,21.578C0.167,21.216 0.48,20.952 0.857,20.897L18.947,18.268L27.038,1.875C27.206,1.533 27.554,1.317 27.934,1.317C28.315,1.317 28.663,1.533 28.83,1.875L36.92,18.268L55.011,20.897C55.388,20.952 55.7,21.215 55.819,21.578C55.936,21.939 55.839,22.337 55.566,22.602L42.475,35.363L45.565,53.38C45.629,53.755 45.475,54.134 45.168,54.358C44.86,54.584 44.451,54.613 44.114,54.434L27.934,45.928L11.752,54.434C11.606,54.51 11.446,54.548 11.287,54.548ZM3.149,22.584L15.165,34.297C15.4,34.526 15.508,34.858 15.452,35.182L12.615,51.72L27.469,43.912C27.76,43.758 28.107,43.758 28.4,43.912L43.252,51.72L40.416,35.182C40.36,34.858 40.468,34.527 40.703,34.297L52.719,22.584L36.114,20.171C35.788,20.124 35.507,19.919 35.361,19.624L27.934,4.578L20.507,19.625C20.361,19.92 20.08,20.125 19.754,20.172L3.149,22.584Z" style="fill-rule:nonzero;"/>
    </g>
</svg>
